# xmcd
#
# Track frame offsets: 
#        150
#        24187
#        42625
#        59670
#        76002
#        90965
#        109570
#        130382
#        144502
#        159085
#        173997
#        188470
#        207642
#        227152
#        245147
#        265577
#        279882
#        297160
#        319425
#        337327
#
# Disc length: 4729 seconds
#
# Revision: 0
# Processed by: cddbd v1.5.1PL0 Copyright (c) Steve Scherf et al.
# Submitted via: ExactAudioCopy v0.95a5
#
DISCID=1e127714
DTITLE=Wilmer X - Arkiv X [CD 2)
DYEAR=2001
DGENRE=Blues
TTITLE0=Teknikens Under
TTITLE1=Om En Hund Mådde Såhär
TTITLE2=Kan Du Bedöva Mig
TTITLE3=I Dina Vilda Ögon
TTITLE4=Blå Vägen Hem
TTITLE5=Hon Är Ihop Med En Insekt
TTITLE6=Bakom År 2000
TTITLE7=Lille John
TTITLE8=Hon Är Som En Vulkan
TTITLE9=Kung För En Dag
TTITLE10=Mambo Feber
TTITLE11=Möt Mig I Din Djungel
TTITLE12=Vem Får Nu Se Alla Tårar
TTITLE13=Vit Slav
TTITLE14=Perssons Gård
TTITLE15=Älska Mig Gick Inte Alls
TTITLE16=Söt Sak
TTITLE17=Min Egen Metod
TTITLE18=Teddys Rum
TTITLE19=Ett och Ett Är Två Men Blir Tre...
EXTD=
EXTT0=
EXTT1=
EXTT2=
EXTT3=
EXTT4=
EXTT5=
EXTT6=
EXTT7=
EXTT8=
EXTT9=
EXTT10=
EXTT11=
EXTT12=
EXTT13=
EXTT14=
EXTT15=
EXTT16=
EXTT17=
EXTT18=
EXTT19=
PLAYORDER=
